<svg id="svg" xmlns="http://www.w3.org/2000/svg" xmlns:xlink="http://www.w3.org/1999/xlink" width="400" height="222.6086956521739" viewBox="0, 0, 400,222.6086956521739"><g id="svgg"><path id="path0" d="M197.388 1.276 C 192.606 2.731,189.565 6.719,189.565 11.538 C 189.565 13.596,192.517 40.294,193.301 45.326 L 193.555 46.957 200.388 46.957 L 207.222 46.957 209.329 28.871 C 211.406 11.050,211.426 10.752,210.704 8.461 C 208.994 3.037,202.724 -0.347,197.388 1.276 M234.780 8.667 C 232.050 9.497,229.055 11.886,227.929 14.130 C 227.331 15.321,218.073 49.099,218.298 49.267 C 219.201 49.941,230.685 54.267,230.917 54.020 C 231.084 53.842,235.100 46.652,239.840 38.043 L 248.458 22.391 248.455 19.348 C 248.449 12.057,241.493 6.625,234.780 8.667 M157.546 9.325 C 152.086 11.700,149.310 18.508,151.685 23.696 C 152.360 25.170,168.521 53.795,168.967 54.307 C 169.141 54.506,181.295 49.503,181.507 49.145 C 181.730 48.769,171.941 15.564,171.166 14.065 C 168.932 9.746,162.068 7.357,157.546 9.325 M126.866 30.117 C 119.818 32.458,116.771 41.107,120.983 46.815 C 121.914 48.077,149.290 70.000,149.934 70.000 C 150.098 70.000,152.360 67.866,154.960 65.257 L 159.688 60.515 148.388 46.239 C 135.063 29.406,133.202 28.012,126.866 30.117 M268.298 30.514 C 264.587 31.161,263.041 32.869,243.149 58.290 L 240.915 61.146 245.783 65.983 L 250.652 70.820 263.995 60.294 C 281.217 46.707,280.476 47.442,281.287 43.146 C 282.700 35.660,276.022 29.166,268.298 30.514 M288.913 62.181 C 288.196 62.408,280.648 66.558,272.140 71.405 L 256.672 80.217 259.277 86.413 C 260.710 89.821,262.095 92.610,262.354 92.611 C 263.881 92.619,296.546 82.720,297.900 81.839 C 307.805 75.393,300.145 58.637,288.913 62.181 M103.051 63.786 C 95.676 67.658,95.006 78.313,101.872 82.556 C 103.022 83.267,121.238 88.567,137.391 92.890 C 137.989 93.050,143.463 80.673,142.983 80.248 C 142.897 80.171,138.717 77.859,133.696 75.110 C 128.674 72.360,121.630 68.485,118.043 66.499 C 110.014 62.052,107.292 61.559,103.051 63.786 M95.886 100.894 C 88.017 104.819,87.456 115.850,94.906 120.175 C 98.040 121.995,98.937 121.978,117.853 119.748 L 135.652 117.649 135.652 110.819 L 135.652 103.989 134.022 103.746 C 132.061 103.452,131.898 103.433,115.375 101.518 C 100.258 99.767,98.273 99.703,95.886 100.894 M281.087 102.420 C 272.478 103.457,265.190 104.316,264.891 104.327 C 264.261 104.351,264.080 118.261,264.710 118.261 C 264.909 118.261,272.572 119.141,281.739 120.217 C 301.323 122.516,301.317 122.516,304.263 121.048 C 314.670 115.862,310.868 100.258,299.253 100.484 C 297.870 100.511,289.696 101.382,281.087 102.420 M261.772 130.080 C 261.550 130.634,260.391 133.481,259.197 136.408 L 257.025 141.729 261.230 144.086 C 265.156 146.288,269.136 148.481,283.238 156.217 C 294.045 162.145,303.019 158.857,303.039 148.963 C 303.055 140.904,301.443 139.861,279.783 133.923 C 270.935 131.498,263.353 129.414,262.935 129.292 C 262.424 129.144,262.042 129.402,261.772 130.080 M120.546 135.416 C 102.520 140.728,101.252 141.276,99.304 144.600 C 94.636 152.567,100.635 162.123,109.717 161.186 C 111.703 160.981,141.127 145.061,143.159 143.091 C 143.642 142.623,138.496 130.665,137.776 130.584 C 137.445 130.546,129.691 132.721,120.546 135.416 M135.870 163.197 C 120.098 175.664,119.460 176.339,119.205 180.849 C 118.813 187.789,123.256 192.696,129.932 192.696 C 135.359 192.696,135.351 192.703,148.909 175.435 C 154.354 168.500,158.972 162.620,159.170 162.367 C 159.394 162.083,157.676 160.061,154.657 157.054 L 149.783 152.200 135.870 163.197 M245.461 156.930 C 241.874 160.529,240.829 161.825,241.168 162.256 C 241.414 162.570,246.071 168.500,251.515 175.435 C 265.068 192.699,264.676 192.343,270.217 192.374 C 280.089 192.429,285.103 180.459,277.975 173.855 C 276.275 172.281,250.744 152.174,250.444 152.174 C 250.311 152.174,248.069 154.314,245.461 156.930 M225.005 170.519 C 221.660 171.942,218.884 173.145,218.837 173.192 C 218.564 173.465,228.910 207.849,229.605 208.975 C 235.374 218.328,250.130 213.305,249.490 202.207 C 249.339 199.590,234.229 171.097,231.574 168.422 C 231.213 168.059,229.515 168.600,225.005 170.519 M166.472 174.457 C 164.741 177.625,160.884 184.620,157.901 190.000 C 152.014 200.618,151.253 203.067,152.584 207.100 C 155.044 214.553,164.867 216.943,170.497 211.458 C 172.718 209.294,172.946 208.646,177.834 190.652 C 180.238 181.804,182.284 174.336,182.380 174.056 C 182.533 173.611,171.205 168.696,170.026 168.696 C 169.802 168.696,168.203 171.288,166.472 174.457 M193.296 177.283 C 192.575 181.826,189.501 209.210,189.497 211.123 C 189.478 220.551,201.259 225.194,208.028 218.425 C 211.785 214.668,211.786 214.662,209.337 193.718 L 207.226 175.652 200.390 175.652 L 193.555 175.652 193.296 177.283 " stroke="none" fill="#000000" fill-rule="evenodd"></path></g></svg>