<svg id="svg" xmlns="http://www.w3.org/2000/svg" xmlns:xlink="http://www.w3.org/1999/xlink" width="400" height="400" viewBox="0, 0, 400,400"><g id="svgg"><path id="path0" d="M173.000 25.307 C 96.009 37.523,32.511 103.536,24.734 179.444 C 21.793 208.150,44.176 209.289,48.158 180.637 C 64.615 62.238,207.189 5.442,296.361 81.762 L 307.721 91.486 300.861 98.135 C 289.642 109.009,290.990 110.000,317.000 110.000 L 340.000 110.000 340.000 87.000 C 340.000 61.751,339.128 60.255,329.685 69.301 L 324.152 74.603 316.498 67.688 C 281.011 35.627,220.530 17.765,173.000 25.307 M152.283 139.141 C 103.397 173.965,100.997 176.631,117.657 177.605 L 128.000 178.209 128.031 233.605 C 128.067 299.823,125.747 294.288,153.162 293.571 L 175.000 293.000 176.000 265.000 L 177.000 237.000 199.000 237.000 L 221.000 237.000 221.491 261.000 C 222.229 297.138,219.994 294.234,246.554 293.565 L 269.000 293.000 269.531 235.500 L 270.061 178.000 279.531 177.969 C 289.891 177.936,296.228 175.303,292.983 172.380 C 290.544 170.183,199.944 106.000,199.282 106.000 C 199.020 106.000,177.871 120.913,152.283 139.141 M356.292 181.708 C 353.259 184.741,352.399 189.568,351.570 208.208 C 346.167 329.749,204.724 395.392,107.500 321.479 C 91.743 309.500,92.290 310.954,100.396 302.591 C 109.494 293.204,106.698 291.752,80.829 292.429 L 59.000 293.000 58.429 314.829 C 57.737 341.298,59.136 343.609,69.643 333.348 L 77.281 325.890 81.140 330.182 C 88.211 338.046,109.429 351.992,126.313 359.875 C 224.294 405.618,340.659 351.246,370.022 246.000 C 382.196 202.365,374.002 163.998,356.292 181.708 " stroke="none" fill="#000000" fill-rule="evenodd"></path></g></svg>