<svg id="svg" version="1.1" xmlns="http://www.w3.org/2000/svg" xmlns:xlink="http://www.w3.org/1999/xlink" width="400" height="99.33481152993348" viewBox="0, 0, 400,99.33481152993348"><g id="svgg"><path id="path0" d="M20.000 11.824 L 20.000 23.648 20.370 23.907 C 21.006 24.352,23.574 24.272,23.907 23.796 C 24.136 23.470,24.167 22.044,24.167 11.713 L 24.167 0.000 22.083 0.000 L 20.000 0.000 20.000 11.824 M389.200 4.957 C 389.997 4.988,391.347 4.988,392.200 4.958 C 393.052 4.927,392.400 4.902,390.750 4.902 C 389.100 4.902,388.402 4.927,389.200 4.957 M386.167 5.833 C 386.167 6.029,386.295 6.029,386.750 5.833 C 387.045 5.706,387.031 5.689,386.625 5.678 C 386.373 5.672,386.167 5.742,386.167 5.833 M394.967 5.867 C 395.122 6.022,395.211 6.022,395.367 5.867 C 395.522 5.711,395.478 5.667,395.167 5.667 C 394.856 5.667,394.811 5.711,394.967 5.867 M0.000 39.246 L 0.000 72.500 18.061 72.500 C 36.080 72.500,36.123 72.499,36.561 72.155 L 37.000 71.809 37.000 63.160 C 37.000 54.780,36.990 54.506,36.678 54.339 C 36.467 54.226,33.234 54.167,27.333 54.167 C 21.433 54.167,18.200 54.107,17.989 53.994 C 17.673 53.825,17.667 53.382,17.664 30.202 C 17.663 15.615,17.601 6.488,17.504 6.333 C 17.367 6.117,16.167 6.077,8.673 6.037 L 0.000 5.991 0.000 39.246 M26.852 6.227 C 26.716 6.391,26.676 8.876,26.707 15.186 L 26.750 23.917 36.200 24.000 C 43.643 24.066,45.696 24.129,45.867 24.300 C 46.042 24.475,46.099 29.093,46.167 48.250 C 46.225 64.997,46.303 72.037,46.431 72.164 C 46.744 72.477,63.303 72.318,63.504 72.000 C 63.863 71.430,63.706 6.366,63.344 6.173 C 62.805 5.884,27.093 5.937,26.852 6.227 M385.257 6.655 C 385.143 6.839,385.406 7.038,385.560 6.884 C 385.719 6.726,385.689 6.500,385.510 6.500 C 385.424 6.500,385.310 6.570,385.257 6.655 M384.411 7.508 C 384.253 7.765,384.470 7.930,384.684 7.716 C 384.804 7.596,384.807 7.503,384.693 7.433 C 384.599 7.375,384.473 7.409,384.411 7.508 M383.512 8.792 C 383.522 9.198,383.540 9.212,383.667 8.917 C 383.862 8.461,383.862 8.333,383.667 8.333 C 383.575 8.333,383.505 8.540,383.512 8.792 M387.972 9.250 C 387.811 9.735,387.847 17.333,388.010 17.333 C 388.086 17.333,388.171 16.340,388.199 15.125 C 388.262 12.402,388.123 8.799,387.972 9.250 M398.517 9.542 C 398.573 10.246,398.801 10.563,398.817 9.958 C 398.826 9.615,398.758 9.333,398.667 9.333 C 398.575 9.333,398.507 9.427,398.517 9.542 M382.724 11.250 C 382.724 11.983,382.754 12.263,382.789 11.871 C 382.824 11.479,382.824 10.879,382.788 10.537 C 382.752 10.196,382.723 10.517,382.724 11.250 M394.214 10.750 C 394.216 11.208,394.248 11.376,394.286 11.123 C 394.325 10.869,394.324 10.494,394.284 10.289 C 394.244 10.084,394.213 10.292,394.214 10.750 M399.500 13.083 C 399.500 13.491,399.575 13.667,399.750 13.667 C 399.925 13.667,400.000 13.491,400.000 13.083 C 400.000 12.676,399.925 12.500,399.750 12.500 C 399.575 12.500,399.500 12.676,399.500 13.083 M382.721 14.917 C 382.722 15.558,382.752 15.800,382.788 15.455 C 382.824 15.109,382.824 14.584,382.787 14.288 C 382.750 13.992,382.721 14.275,382.721 14.917 M394.150 16.333 C 394.100 16.837,394.113 17.313,394.178 17.390 C 394.378 17.626,394.427 17.289,394.332 16.333 L 394.240 15.417 394.150 16.333 M398.618 16.167 C 398.570 16.350,398.599 16.542,398.682 16.593 C 398.765 16.644,398.833 16.494,398.833 16.260 C 398.833 15.749,398.738 15.708,398.618 16.167 M384.503 18.875 C 384.501 19.087,384.625 19.161,384.958 19.147 C 385.310 19.133,385.339 19.109,385.083 19.045 C 384.900 18.999,384.695 18.876,384.628 18.772 C 384.550 18.652,384.504 18.690,384.503 18.875 M385.750 20.000 C 386.205 20.196,386.333 20.196,386.333 20.000 C 386.333 19.908,386.127 19.839,385.875 19.845 C 385.469 19.855,385.455 19.873,385.750 20.000 M387.167 20.833 C 387.167 20.925,387.448 20.993,387.792 20.983 C 388.349 20.969,388.372 20.952,388.000 20.833 C 387.404 20.643,387.167 20.643,387.167 20.833 M393.917 20.833 C 393.623 20.959,393.640 20.978,394.052 20.988 C 394.324 20.995,394.477 20.930,394.417 20.833 C 394.360 20.742,394.299 20.672,394.282 20.678 C 394.264 20.685,394.100 20.755,393.917 20.833 M390.125 21.789 C 390.515 21.824,391.152 21.824,391.542 21.789 C 391.931 21.754,391.613 21.725,390.833 21.725 C 390.054 21.725,389.735 21.754,390.125 21.789 M40.000 54.216 L 39.583 54.426 39.541 66.069 C 39.500 77.008,39.515 77.725,39.791 77.934 C 40.093 78.163,42.720 78.264,43.236 78.066 C 43.690 77.891,43.633 54.416,43.178 54.173 C 42.727 53.931,40.503 53.961,40.000 54.216 " stroke="none" fill="#1c151c" fill-rule="evenodd"></path><path id="path1" d="M87.066 4.367 C 86.694 5.087,86.720 74.764,87.093 75.296 L 87.352 75.667 94.498 75.667 C 100.771 75.667,101.675 75.635,101.905 75.405 C 102.260 75.049,102.311 4.762,101.957 4.276 C 101.764 4.013,101.143 3.986,94.523 3.953 L 87.299 3.917 87.066 4.367 M362.109 4.250 C 361.971 4.489,361.893 7.829,361.833 16.000 L 361.750 27.417 361.289 27.385 C 361.035 27.367,360.638 27.204,360.406 27.021 C 360.174 26.839,359.744 26.639,359.451 26.577 C 359.157 26.515,358.692 26.329,358.417 26.163 C 358.142 25.998,357.279 25.745,356.500 25.602 C 355.721 25.459,354.671 25.222,354.167 25.076 C 352.966 24.728,349.948 24.851,348.083 25.325 C 347.350 25.512,346.488 25.665,346.167 25.667 C 345.846 25.669,345.189 25.853,344.708 26.077 C 344.226 26.302,343.575 26.533,343.259 26.593 C 342.944 26.652,342.442 26.880,342.144 27.100 C 341.846 27.320,341.472 27.500,341.314 27.500 C 341.155 27.500,340.814 27.676,340.554 27.892 C 340.295 28.107,339.896 28.381,339.667 28.501 C 338.925 28.887,338.330 29.386,336.592 31.083 C 335.020 32.619,334.505 33.245,333.578 34.758 C 333.391 35.062,333.119 35.447,332.972 35.614 C 332.826 35.780,332.649 36.104,332.580 36.333 C 332.511 36.563,332.277 36.962,332.061 37.221 C 331.844 37.480,331.667 37.802,331.667 37.937 C 331.667 38.072,331.479 38.534,331.250 38.965 C 331.021 39.395,330.833 39.898,330.832 40.082 C 330.831 40.266,330.647 40.810,330.424 41.290 C 330.200 41.770,329.964 42.633,329.900 43.207 C 329.836 43.780,329.636 44.737,329.456 45.333 C 328.991 46.874,328.860 52.034,329.241 53.833 C 329.386 54.521,329.649 55.884,329.825 56.862 C 330.001 57.840,330.260 58.863,330.401 59.136 C 330.542 59.409,330.737 59.988,330.835 60.422 C 330.932 60.857,331.159 61.400,331.339 61.629 C 331.519 61.858,331.667 62.174,331.667 62.333 C 331.667 62.491,331.847 62.885,332.067 63.210 C 332.287 63.534,332.520 63.975,332.586 64.191 C 332.651 64.407,332.838 64.733,333.000 64.917 C 333.162 65.100,333.419 65.475,333.571 65.750 C 334.448 67.336,338.832 71.833,339.500 71.833 C 339.566 71.833,339.904 72.058,340.250 72.333 C 340.596 72.608,341.004 72.833,341.157 72.833 C 341.310 72.833,341.689 73.021,342.000 73.250 C 342.311 73.479,342.722 73.667,342.914 73.667 C 343.106 73.667,343.560 73.821,343.923 74.010 C 344.286 74.199,345.408 74.505,346.417 74.689 C 347.425 74.873,348.587 75.089,349.000 75.169 C 350.296 75.419,352.361 75.353,353.677 75.018 C 354.359 74.845,355.228 74.658,355.608 74.603 C 356.227 74.512,357.304 74.068,358.500 73.410 C 358.729 73.284,359.235 73.020,359.625 72.822 C 360.015 72.625,360.333 72.398,360.333 72.317 C 360.333 72.237,360.609 72.056,360.946 71.915 C 361.755 71.577,361.828 71.711,361.831 73.553 C 361.835 75.901,360.948 75.667,369.830 75.667 L 377.481 75.667 377.741 75.296 C 378.095 74.790,378.130 5.006,377.776 4.368 L 377.565 3.987 369.933 3.952 C 362.457 3.917,362.297 3.923,362.109 4.250 M389.125 4.784 C 389.331 4.824,389.669 4.824,389.875 4.784 C 390.081 4.745,389.912 4.712,389.500 4.712 C 389.087 4.712,388.919 4.745,389.125 4.784 M391.792 4.784 C 391.998 4.824,392.335 4.824,392.542 4.784 C 392.748 4.745,392.579 4.712,392.167 4.712 C 391.754 4.712,391.585 4.745,391.792 4.784 M26.942 5.958 C 26.872 6.071,39.283 6.071,56.167 5.956 C 59.696 5.932,54.582 5.895,44.802 5.873 C 35.021 5.851,26.985 5.890,26.942 5.958 M395.899 6.529 C 395.830 6.640,395.856 6.672,395.960 6.608 C 396.058 6.547,396.167 6.585,396.202 6.691 C 396.238 6.797,396.357 6.853,396.468 6.816 C 396.596 6.773,396.551 6.674,396.343 6.545 C 396.101 6.394,395.985 6.390,395.899 6.529 M394.042 10.750 C 394.044 11.117,394.078 11.247,394.118 11.040 C 394.158 10.832,394.156 10.532,394.115 10.373 C 394.073 10.214,394.040 10.383,394.042 10.750 M382.539 11.500 C 382.539 11.821,382.573 11.952,382.615 11.792 C 382.657 11.631,382.657 11.369,382.615 11.208 C 382.573 11.048,382.539 11.179,382.539 11.500 M399.500 12.333 C 399.500 12.425,399.613 12.500,399.750 12.500 C 399.887 12.500,400.000 12.425,400.000 12.333 C 400.000 12.242,399.887 12.167,399.750 12.167 C 399.613 12.167,399.500 12.242,399.500 12.333 M387.887 13.333 C 387.887 13.929,387.917 14.173,387.954 13.875 C 387.991 13.577,387.991 13.090,387.954 12.792 C 387.917 12.494,387.887 12.737,387.887 13.333 M388.225 12.942 C 388.212 13.169,388.249 13.295,388.309 13.221 C 388.368 13.147,388.476 13.042,388.550 12.987 C 388.623 12.932,388.585 12.807,388.466 12.708 C 388.300 12.570,388.244 12.623,388.225 12.942 M392.875 12.948 C 393.049 12.994,393.167 13.183,393.167 13.419 C 393.167 13.871,393.419 14.100,393.598 13.810 C 393.677 13.681,393.646 13.660,393.504 13.747 C 393.361 13.836,393.317 13.803,393.373 13.648 C 393.495 13.304,393.196 12.831,392.869 12.853 C 392.606 12.871,392.606 12.878,392.875 12.948 M399.500 13.833 C 399.500 13.925,399.613 14.000,399.750 14.000 C 399.887 14.000,400.000 13.925,400.000 13.833 C 400.000 13.742,399.887 13.667,399.750 13.667 C 399.613 13.667,399.500 13.742,399.500 13.833 M382.545 14.667 C 382.545 15.079,382.578 15.248,382.618 15.042 C 382.657 14.835,382.657 14.498,382.618 14.292 C 382.578 14.085,382.545 14.254,382.545 14.667 M384.338 18.592 C 384.343 19.023,384.366 19.045,384.522 18.776 C 384.651 18.555,384.649 18.416,384.517 18.284 C 384.383 18.150,384.335 18.233,384.338 18.592 M385.167 19.169 C 385.020 19.262,384.998 19.329,385.113 19.331 C 385.222 19.332,385.334 19.502,385.364 19.708 C 385.393 19.915,385.461 20.008,385.516 19.917 C 385.711 19.586,385.436 18.997,385.167 19.169 M126.750 21.597 C 126.292 21.730,125.312 21.944,124.574 22.073 C 123.835 22.201,122.972 22.455,122.657 22.635 C 122.341 22.815,121.810 23.011,121.475 23.069 C 121.141 23.128,120.691 23.314,120.475 23.483 C 120.260 23.652,119.845 23.842,119.553 23.906 C 119.262 23.969,118.925 24.139,118.806 24.283 C 118.686 24.428,118.287 24.686,117.919 24.858 C 117.551 25.030,116.950 25.397,116.583 25.674 C 116.217 25.951,115.622 26.373,115.261 26.611 C 114.424 27.163,111.503 30.082,110.936 30.934 C 110.096 32.195,109.934 32.421,109.571 32.833 C 109.369 33.063,109.148 33.438,109.079 33.667 C 109.011 33.896,108.777 34.295,108.561 34.554 C 108.344 34.814,108.167 35.155,108.167 35.314 C 108.167 35.472,107.987 35.846,107.767 36.144 C 107.547 36.442,107.318 36.946,107.258 37.265 C 107.199 37.583,107.011 38.085,106.841 38.380 C 106.671 38.675,106.478 39.254,106.412 39.667 C 106.346 40.079,106.149 40.783,105.973 41.231 C 105.058 43.565,105.056 53.878,105.971 56.509 C 106.148 57.019,106.348 57.837,106.416 58.329 C 106.484 58.820,106.718 59.558,106.936 59.969 C 107.155 60.380,107.333 60.916,107.333 61.159 C 107.333 61.403,107.521 61.856,107.750 62.167 C 107.979 62.477,108.167 62.899,108.167 63.103 C 108.167 63.307,108.344 63.686,108.561 63.946 C 108.777 64.205,109.011 64.604,109.080 64.833 C 109.149 65.063,109.338 65.400,109.500 65.583 C 109.662 65.767,109.919 66.142,110.071 66.417 C 111.198 68.454,114.512 71.904,116.431 73.037 C 116.927 73.330,117.143 73.463,118.167 74.110 C 118.487 74.313,118.953 74.529,119.201 74.589 C 119.450 74.650,119.741 74.805,119.848 74.935 C 119.956 75.064,120.465 75.292,120.980 75.442 C 121.495 75.592,122.071 75.815,122.260 75.939 C 122.448 76.062,123.207 76.268,123.947 76.398 C 124.686 76.527,125.454 76.719,125.652 76.826 C 126.707 77.390,134.848 77.446,136.371 76.899 C 136.763 76.758,137.621 76.538,138.279 76.410 C 138.937 76.282,139.724 76.025,140.029 75.839 C 140.334 75.653,140.784 75.501,141.029 75.501 C 141.274 75.500,141.686 75.324,141.946 75.109 C 142.205 74.893,142.635 74.664,142.902 74.599 C 143.170 74.533,143.582 74.329,143.819 74.144 C 144.056 73.960,144.737 73.500,145.332 73.124 C 146.410 72.441,150.420 68.580,150.855 67.807 C 151.358 66.911,151.767 66.270,152.101 65.854 C 152.294 65.613,152.541 65.141,152.651 64.805 C 152.761 64.469,152.959 64.104,153.091 63.994 C 153.223 63.884,153.413 63.484,153.514 63.106 C 153.615 62.727,153.797 62.304,153.918 62.167 C 154.039 62.029,154.263 61.433,154.416 60.841 C 154.831 59.230,155.371 59.333,146.549 59.333 L 138.996 59.333 138.030 60.292 C 136.737 61.575,136.282 61.864,135.002 62.213 C 134.405 62.375,133.654 62.580,133.333 62.667 C 132.432 62.912,129.846 62.854,129.083 62.572 C 128.717 62.437,128.067 62.256,127.640 62.170 C 126.353 61.912,123.852 59.877,123.233 58.583 C 123.102 58.308,122.890 57.896,122.763 57.667 C 122.411 57.031,121.824 54.719,121.938 54.421 C 122.164 53.833,122.526 53.820,138.494 53.830 C 156.207 53.841,155.599 53.869,155.955 53.018 C 156.291 52.214,156.158 46.968,155.759 45.250 C 155.610 44.608,155.419 43.506,155.336 42.801 C 155.252 42.095,155.039 41.195,154.863 40.801 C 154.686 40.406,154.490 39.783,154.425 39.417 C 154.361 39.050,154.135 38.375,153.922 37.917 C 153.113 36.176,152.135 34.228,151.783 33.653 C 151.581 33.325,151.267 32.812,151.083 32.513 C 150.175 31.029,147.746 28.255,146.418 27.184 C 145.461 26.413,144.584 25.789,144.235 25.629 C 144.014 25.529,143.833 25.381,143.833 25.301 C 143.833 25.220,143.504 25.014,143.102 24.841 C 142.699 24.669,142.323 24.452,142.266 24.359 C 142.209 24.267,141.890 24.101,141.558 23.992 C 141.226 23.882,140.692 23.614,140.371 23.396 C 140.050 23.178,139.629 22.999,139.435 22.998 C 139.242 22.997,138.682 22.810,138.192 22.582 C 137.701 22.353,137.139 22.167,136.941 22.167 C 136.744 22.167,135.833 21.980,134.916 21.752 C 132.900 21.250,128.253 21.162,126.750 21.597 M389.442 21.625 C 389.400 21.694,389.751 21.729,390.224 21.702 C 391.757 21.617,391.943 21.550,390.718 21.525 C 390.059 21.511,389.485 21.556,389.442 21.625 M248.491 22.408 C 248.229 22.671,248.285 34.252,248.549 34.472 C 248.698 34.595,249.101 34.602,249.841 34.496 C 257.108 33.445,262.500 35.544,262.500 39.422 C 262.500 40.886,262.362 40.984,261.235 40.321 C 260.785 40.056,260.246 39.838,260.037 39.836 C 259.828 39.835,259.203 39.643,258.649 39.409 C 256.746 38.608,249.670 38.651,248.049 39.473 C 247.701 39.649,247.102 39.846,246.718 39.910 C 246.334 39.974,245.934 40.129,245.830 40.255 C 245.725 40.380,245.365 40.573,245.028 40.682 C 244.692 40.792,244.205 41.058,243.946 41.274 C 243.686 41.490,243.416 41.667,243.345 41.667 C 243.274 41.667,243.024 41.835,242.790 42.042 C 242.556 42.248,241.994 42.717,241.542 43.083 C 240.617 43.834,238.753 46.084,238.496 46.761 C 238.403 47.006,238.178 47.395,237.997 47.625 C 237.815 47.856,237.667 48.169,237.667 48.321 C 237.667 48.472,237.513 48.893,237.325 49.256 C 237.136 49.620,236.907 50.329,236.815 50.833 C 236.724 51.337,236.494 52.200,236.304 52.750 C 235.724 54.434,235.779 60.726,236.390 62.634 C 236.634 63.395,236.833 64.147,236.833 64.307 C 236.833 64.466,236.967 64.858,237.130 65.178 C 237.293 65.498,237.562 66.114,237.727 66.547 C 237.892 66.979,238.084 67.333,238.154 67.333 C 238.223 67.333,238.362 67.513,238.462 67.734 C 238.840 68.562,240.228 70.197,241.303 71.078 C 241.915 71.580,242.550 72.108,242.713 72.250 C 243.090 72.580,244.952 73.583,245.500 73.751 C 245.729 73.822,246.085 74.010,246.290 74.170 C 246.495 74.331,247.020 74.513,247.456 74.575 C 247.893 74.637,248.808 74.878,249.489 75.109 C 251.028 75.633,256.296 75.654,257.250 75.140 C 257.525 74.992,258.180 74.783,258.705 74.675 C 259.230 74.566,260.205 74.185,260.872 73.828 C 261.538 73.471,262.247 73.091,262.448 72.984 C 263.111 72.630,263.333 72.887,263.333 74.006 C 263.333 75.823,262.623 75.667,270.889 75.667 C 276.275 75.667,278.151 75.616,278.300 75.467 C 278.685 75.081,278.578 37.026,278.187 35.485 C 278.015 34.806,277.789 33.848,277.685 33.357 C 277.581 32.866,277.347 32.274,277.165 32.043 C 276.982 31.811,276.833 31.536,276.833 31.430 C 276.833 31.119,275.806 29.616,274.999 28.746 C 273.451 27.078,271.898 25.667,271.609 25.667 C 271.493 25.667,271.144 25.479,270.833 25.250 C 270.523 25.021,270.153 24.833,270.012 24.833 C 269.870 24.833,269.379 24.653,268.919 24.432 C 268.459 24.211,267.633 23.919,267.083 23.783 C 266.533 23.646,265.783 23.418,265.417 23.275 C 265.050 23.132,264.457 23.011,264.099 23.007 C 263.740 23.003,262.653 22.852,261.682 22.672 C 259.707 22.304,248.813 22.087,248.491 22.408 M242.000 22.589 C 241.588 22.718,240.721 22.903,240.073 23.001 C 239.426 23.100,238.532 23.364,238.087 23.590 C 237.641 23.815,237.150 24.000,236.994 24.000 C 236.839 24.000,236.533 24.138,236.314 24.307 C 236.096 24.475,235.669 24.698,235.367 24.801 C 235.065 24.904,234.624 25.141,234.386 25.327 C 234.149 25.514,233.871 25.669,233.769 25.671 C 233.667 25.674,233.289 25.899,232.929 26.171 C 232.569 26.444,232.206 26.667,232.122 26.667 C 232.038 26.667,231.565 27.013,231.070 27.435 C 229.700 28.606,229.456 28.253,229.527 25.206 C 229.551 24.159,229.496 23.596,229.356 23.456 C 229.068 23.168,213.407 23.065,213.064 23.349 C 212.737 23.621,212.716 74.943,213.043 75.390 C 213.299 75.740,228.984 75.750,229.333 75.400 C 229.463 75.270,229.513 71.595,229.504 62.733 C 229.489 48.789,229.607 45.974,230.266 44.552 C 230.486 44.076,230.667 43.581,230.667 43.450 C 230.667 43.320,230.847 42.948,231.067 42.624 C 231.287 42.300,231.517 41.877,231.578 41.685 C 231.747 41.151,234.332 38.592,235.096 38.203 C 235.468 38.013,235.870 37.740,235.990 37.596 C 236.110 37.451,236.334 37.333,236.488 37.333 C 236.642 37.333,237.023 37.146,237.333 36.917 C 237.644 36.688,238.015 36.499,238.157 36.498 C 238.300 36.497,238.813 36.312,239.297 36.087 C 239.782 35.861,240.569 35.626,241.047 35.563 C 242.045 35.433,243.551 34.948,244.124 34.572 L 244.516 34.315 244.466 28.485 C 244.424 23.521,244.380 22.631,244.167 22.496 C 243.815 22.274,242.882 22.314,242.000 22.589 M193.478 23.301 C 193.200 23.496,193.167 23.764,193.167 25.833 C 193.167 28.525,193.172 28.517,191.988 27.663 C 191.491 27.303,190.858 26.886,190.583 26.735 C 190.308 26.584,189.933 26.329,189.750 26.168 C 189.567 26.006,189.123 25.780,188.764 25.665 C 188.404 25.550,187.879 25.323,187.597 25.160 C 187.314 24.998,186.760 24.813,186.364 24.749 C 185.968 24.686,185.218 24.484,184.697 24.300 C 183.152 23.756,178.367 23.817,176.508 24.404 C 175.761 24.640,174.923 24.833,174.646 24.833 C 174.369 24.833,173.829 25.013,173.446 25.234 C 173.063 25.454,172.510 25.684,172.216 25.745 C 171.923 25.806,171.510 25.990,171.299 26.154 C 171.089 26.318,170.644 26.540,170.312 26.649 C 169.979 26.757,169.574 26.993,169.411 27.173 C 169.248 27.353,169.052 27.500,168.976 27.500 C 168.899 27.500,168.479 27.765,168.043 28.090 C 167.607 28.414,167.076 28.808,166.862 28.965 C 166.649 29.122,165.832 29.887,165.047 30.667 C 163.708 31.996,163.238 32.576,162.411 33.925 C 162.225 34.229,161.952 34.614,161.806 34.780 C 161.659 34.947,161.484 35.271,161.417 35.500 C 161.350 35.729,161.159 36.067,160.993 36.250 C 160.827 36.433,160.639 36.808,160.574 37.083 C 160.510 37.358,160.319 37.814,160.150 38.096 C 159.981 38.377,159.756 39.015,159.651 39.512 C 159.545 40.010,159.325 40.681,159.162 41.004 C 158.998 41.328,158.778 42.320,158.671 43.210 C 158.565 44.100,158.404 45.073,158.312 45.372 C 157.946 46.577,157.940 50.464,158.302 52.583 C 158.489 53.683,158.696 55.071,158.761 55.667 C 158.825 56.262,159.012 57.016,159.175 57.341 C 159.339 57.666,159.524 58.229,159.588 58.591 C 159.652 58.953,159.874 59.550,160.082 59.917 C 160.290 60.283,160.511 60.824,160.575 61.117 C 160.638 61.411,160.823 61.823,160.985 62.034 C 161.147 62.244,161.569 62.938,161.923 63.574 C 162.276 64.211,162.682 64.861,162.824 65.019 C 162.967 65.177,163.346 65.658,163.667 66.087 C 164.735 67.516,167.536 70.167,167.978 70.167 C 168.073 70.167,168.217 70.286,168.298 70.431 C 168.459 70.718,169.345 71.297,170.436 71.829 C 170.814 72.012,171.213 72.271,171.323 72.404 C 171.433 72.537,171.762 72.696,172.053 72.757 C 172.345 72.819,172.808 73.004,173.083 73.169 C 173.358 73.334,173.921 73.555,174.333 73.659 C 174.746 73.764,175.421 73.989,175.833 74.159 C 178.315 75.183,186.019 75.126,188.266 74.067 C 188.733 73.847,189.203 73.667,189.310 73.667 C 189.566 73.667,191.323 72.694,191.750 72.317 C 193.095 71.127,193.207 71.372,193.177 75.454 L 193.151 78.881 192.582 80.066 C 191.766 81.764,190.295 83.135,188.984 83.418 C 188.672 83.485,188.117 83.696,187.750 83.886 C 186.747 84.406,182.568 84.391,181.479 83.864 C 181.074 83.667,180.481 83.458,180.163 83.398 C 179.844 83.338,179.433 83.156,179.250 82.994 C 179.067 82.831,178.654 82.586,178.333 82.448 C 177.555 82.113,176.285 80.835,175.636 79.735 L 175.299 79.164 166.191 79.207 L 157.083 79.250 157.034 80.195 C 156.996 80.912,157.086 81.381,157.409 82.148 C 157.642 82.703,157.833 83.336,157.833 83.555 C 157.833 83.774,158.008 84.211,158.222 84.526 C 158.435 84.841,158.695 85.342,158.799 85.640 C 158.903 85.938,159.141 86.376,159.327 86.614 C 159.514 86.851,159.667 87.119,159.667 87.209 C 159.667 87.299,159.873 87.617,160.125 87.916 C 160.377 88.215,160.903 88.900,161.293 89.438 C 162.291 90.815,162.423 90.955,163.917 92.212 C 164.650 92.829,165.377 93.442,165.533 93.575 C 165.688 93.707,166.045 93.934,166.324 94.079 C 166.604 94.223,166.833 94.406,166.833 94.484 C 166.833 94.562,167.077 94.724,167.375 94.844 C 167.673 94.963,168.129 95.235,168.388 95.447 C 168.647 95.660,168.989 95.833,169.147 95.833 C 169.306 95.833,169.684 96.017,169.988 96.241 C 170.292 96.466,170.776 96.699,171.062 96.759 C 171.349 96.820,171.808 97.003,172.083 97.166 C 172.358 97.330,172.981 97.547,173.467 97.649 C 173.952 97.750,174.580 97.952,174.862 98.098 C 175.232 98.290,178.100 98.803,178.958 98.832 C 178.981 98.833,179.000 98.946,179.000 99.083 C 179.000 99.301,179.722 99.333,184.500 99.333 C 189.098 99.333,190.000 99.295,190.000 99.100 C 190.000 98.865,191.568 98.502,192.597 98.498 C 192.864 98.498,193.458 98.312,193.917 98.087 C 194.375 97.862,194.938 97.674,195.167 97.671 C 195.549 97.665,195.810 97.561,196.750 97.041 C 196.933 96.940,197.646 96.582,198.333 96.246 C 199.021 95.910,199.846 95.457,200.167 95.239 C 200.487 95.022,201.005 94.672,201.317 94.463 C 201.829 94.120,204.391 91.647,205.268 90.650 C 205.461 90.430,205.784 89.950,205.985 89.583 C 206.186 89.217,206.642 88.392,206.998 87.750 C 207.354 87.108,207.650 86.450,207.656 86.287 C 207.662 86.123,207.873 85.523,208.125 84.953 L 208.583 83.917 208.630 53.733 C 208.669 28.077,208.641 23.520,208.444 23.356 C 208.085 23.058,193.899 23.006,193.478 23.301 M289.750 23.164 L 282.250 23.250 282.167 49.147 C 282.099 70.299,282.123 75.102,282.301 75.356 C 282.508 75.651,282.890 75.667,290.083 75.667 L 297.648 75.667 297.907 75.296 C 298.138 74.967,298.167 73.160,298.167 59.162 L 298.167 43.398 298.713 42.324 C 299.346 41.079,300.010 40.325,300.833 39.916 C 301.154 39.757,301.556 39.504,301.726 39.355 C 302.292 38.857,306.401 38.966,307.226 39.500 C 308.407 40.266,309.312 41.179,309.510 41.805 C 309.617 42.141,309.827 42.604,309.977 42.833 C 310.224 43.210,310.258 44.799,310.333 59.298 C 310.406 73.320,310.448 75.366,310.667 75.504 C 311.199 75.840,325.246 75.706,325.558 75.362 C 325.811 75.082,325.833 73.472,325.833 55.605 C 325.833 35.606,325.770 33.325,325.192 32.500 C 325.031 32.271,324.768 31.733,324.608 31.305 C 324.447 30.877,324.207 30.436,324.075 30.326 C 323.942 30.216,323.833 30.025,323.833 29.902 C 323.833 29.779,323.627 29.465,323.375 29.205 C 323.123 28.945,322.690 28.473,322.412 28.158 C 321.752 27.406,319.757 25.667,319.556 25.667 C 319.469 25.667,319.144 25.479,318.833 25.250 C 318.523 25.021,318.144 24.833,317.992 24.833 C 317.841 24.833,317.376 24.653,316.961 24.432 C 315.165 23.477,308.129 23.422,306.306 24.348 C 305.970 24.519,305.334 24.740,304.892 24.839 C 304.450 24.938,303.975 25.118,303.836 25.238 C 303.697 25.359,303.283 25.551,302.917 25.664 C 302.550 25.778,302.063 25.990,301.833 26.136 C 300.455 27.015,298.348 27.946,298.260 27.715 C 298.209 27.582,298.167 26.590,298.167 25.512 C 298.167 23.547,297.966 22.896,297.404 23.039 C 297.319 23.061,293.875 23.117,289.750 23.164 M31.363 24.125 C 33.809 24.151,37.859 24.151,40.363 24.125 C 42.868 24.099,40.867 24.078,35.917 24.078 C 30.967 24.078,28.918 24.099,31.363 24.125 M46.081 48.333 C 46.081 61.121,46.101 66.352,46.125 59.958 C 46.149 53.565,46.149 43.102,46.125 36.708 C 46.101 30.315,46.081 35.546,46.081 48.333 M132.000 35.250 C 132.390 35.387,132.868 35.500,133.063 35.500 C 133.257 35.500,133.679 35.644,134.000 35.819 C 134.321 35.994,134.808 36.248,135.083 36.383 C 136.132 36.898,138.332 39.474,138.334 40.188 C 138.334 40.314,138.471 40.642,138.638 40.917 C 139.736 42.726,140.051 42.658,130.434 42.675 C 120.771 42.692,121.340 42.792,122.057 41.196 C 122.300 40.653,122.500 40.093,122.500 39.952 C 122.500 39.810,122.648 39.520,122.829 39.306 C 123.009 39.092,123.430 38.579,123.764 38.167 C 124.097 37.754,124.549 37.321,124.768 37.203 C 124.987 37.085,125.167 36.915,125.167 36.824 C 125.167 36.733,125.355 36.587,125.586 36.499 C 125.816 36.411,126.210 36.189,126.461 36.005 C 126.711 35.821,127.292 35.600,127.750 35.513 C 128.208 35.427,128.771 35.280,129.000 35.188 C 129.629 34.936,131.202 34.968,132.000 35.250 M184.667 39.334 C 184.987 39.421,185.753 39.630,186.368 39.798 C 186.983 39.965,187.621 40.222,187.785 40.368 C 187.949 40.514,188.346 40.745,188.667 40.881 C 193.324 42.861,195.052 50.993,191.757 55.420 C 190.894 56.580,188.870 58.365,188.170 58.584 C 187.942 58.655,187.567 58.849,187.337 59.014 C 186.901 59.325,183.435 59.920,182.987 59.760 C 182.857 59.714,182.112 59.599,181.333 59.505 C 180.405 59.392,179.764 59.221,179.475 59.007 C 179.232 58.828,178.826 58.629,178.573 58.566 C 178.138 58.457,175.990 56.779,175.853 56.442 C 175.818 56.355,175.576 56.061,175.316 55.789 C 175.056 55.517,174.793 55.136,174.732 54.942 C 174.670 54.748,174.483 54.401,174.316 54.170 C 174.149 53.939,173.939 53.450,173.851 53.083 C 173.762 52.717,173.575 52.117,173.435 51.750 C 172.790 50.056,173.329 46.668,174.603 44.418 C 175.110 43.521,177.710 40.833,178.070 40.833 C 178.190 40.833,178.467 40.693,178.686 40.521 C 178.904 40.349,179.646 40.044,180.333 39.842 C 182.605 39.175,183.639 39.053,184.667 39.334 M356.500 40.529 C 358.221 41.313,361.000 43.506,361.000 44.080 C 361.000 44.147,361.188 44.425,361.417 44.697 C 361.646 44.969,361.833 45.292,361.833 45.413 C 361.833 45.534,362.020 46.035,362.248 46.525 C 362.923 47.975,362.875 51.954,362.161 53.737 C 361.338 55.792,359.738 57.784,358.333 58.500 C 357.979 58.681,357.643 58.903,357.587 58.993 C 357.531 59.084,357.124 59.266,356.681 59.397 C 356.238 59.528,355.623 59.771,355.313 59.935 C 354.427 60.406,350.998 60.380,350.077 59.896 C 349.706 59.701,349.144 59.485,348.827 59.416 C 348.510 59.347,348.038 59.112,347.779 58.895 C 347.520 58.678,347.205 58.500,347.079 58.500 C 346.745 58.500,344.591 56.324,344.174 55.565 C 343.978 55.208,343.716 54.729,343.592 54.500 C 342.481 52.449,342.152 48.553,342.966 47.090 C 343.168 46.727,343.333 46.268,343.333 46.071 C 343.333 45.873,343.473 45.533,343.643 45.314 C 343.813 45.096,344.071 44.692,344.215 44.417 C 346.152 40.717,352.501 38.709,356.500 40.529 M259.690 50.313 C 261.023 51.067,262.224 52.333,262.825 53.617 C 263.421 54.891,263.576 57.989,263.087 58.833 C 262.954 59.063,262.702 59.550,262.528 59.917 C 262.186 60.637,260.660 62.167,260.283 62.167 C 260.156 62.167,259.922 62.310,259.764 62.484 C 259.094 63.225,254.423 63.294,253.824 62.572 C 253.723 62.450,253.390 62.268,253.086 62.167 C 251.774 61.735,250.349 59.595,250.118 57.710 C 249.706 54.365,250.879 51.955,253.682 50.383 C 255.340 49.453,258.114 49.421,259.690 50.313 M22.887 54.125 C 25.345 54.151,29.320 54.151,31.720 54.125 C 34.120 54.099,32.108 54.078,27.250 54.078 C 22.392 54.078,20.428 54.099,22.887 54.125 M43.579 66.083 C 43.579 72.500,43.600 75.101,43.625 71.863 C 43.650 68.625,43.650 63.375,43.625 60.196 C 43.600 57.017,43.579 59.667,43.579 66.083 " stroke="none" fill="#e3051a" fill-rule="evenodd"></path><path id="path2" d="M0.000 3.000 L 0.000 6.000 8.661 6.000 C 17.053 6.000,17.327 6.010,17.494 6.322 C 17.611 6.540,17.667 14.291,17.667 30.229 C 17.667 45.546,17.724 53.849,17.831 53.915 C 17.921 53.971,21.975 54.011,26.840 54.004 C 32.599 53.996,35.914 54.054,36.342 54.169 L 37.000 54.346 37.000 63.090 C 37.000 71.611,36.992 71.842,36.667 72.167 C 36.337 72.496,36.111 72.500,18.167 72.500 L 0.000 72.500 0.000 85.917 L 0.000 99.333 89.500 99.333 C 168.944 99.333,179.000 99.305,179.000 99.083 C 179.000 98.946,178.981 98.833,178.958 98.832 C 178.100 98.803,175.232 98.290,174.862 98.098 C 174.580 97.952,173.952 97.750,173.467 97.649 C 172.981 97.547,172.358 97.330,172.083 97.166 C 171.808 97.003,171.349 96.820,171.062 96.759 C 170.776 96.699,170.292 96.466,169.988 96.241 C 169.684 96.017,169.306 95.833,169.147 95.833 C 168.989 95.833,168.647 95.660,168.388 95.447 C 168.129 95.235,167.673 94.963,167.375 94.844 C 167.077 94.724,166.833 94.562,166.833 94.484 C 166.833 94.406,166.604 94.223,166.324 94.079 C 166.045 93.934,165.688 93.707,165.533 93.575 C 165.377 93.442,164.650 92.829,163.917 92.212 C 162.423 90.955,162.291 90.815,161.293 89.438 C 160.903 88.900,160.377 88.215,160.125 87.916 C 159.873 87.617,159.667 87.299,159.667 87.209 C 159.667 87.119,159.514 86.851,159.327 86.614 C 159.141 86.376,158.903 85.938,158.799 85.640 C 158.695 85.342,158.435 84.841,158.222 84.526 C 158.008 84.211,157.833 83.774,157.833 83.555 C 157.833 83.336,157.642 82.703,157.409 82.148 C 157.086 81.381,156.996 80.912,157.034 80.195 L 157.083 79.250 166.191 79.207 L 175.299 79.164 175.636 79.735 C 176.285 80.835,177.555 82.113,178.333 82.448 C 178.654 82.586,179.067 82.831,179.250 82.994 C 179.433 83.156,179.844 83.338,180.163 83.398 C 180.481 83.458,181.074 83.667,181.479 83.864 C 182.568 84.391,186.747 84.406,187.750 83.886 C 188.117 83.696,188.672 83.485,188.984 83.418 C 190.295 83.135,191.766 81.764,192.582 80.066 L 193.151 78.881 193.177 75.454 C 193.207 71.372,193.095 71.127,191.750 72.317 C 191.323 72.694,189.566 73.667,189.310 73.667 C 189.203 73.667,188.733 73.847,188.266 74.067 C 186.019 75.126,178.315 75.183,175.833 74.159 C 175.421 73.989,174.746 73.764,174.333 73.659 C 173.921 73.555,173.358 73.334,173.083 73.169 C 172.808 73.004,172.345 72.819,172.053 72.757 C 171.762 72.696,171.433 72.537,171.323 72.404 C 171.213 72.271,170.814 72.012,170.436 71.829 C 169.345 71.297,168.459 70.718,168.298 70.431 C 168.217 70.286,168.073 70.167,167.978 70.167 C 167.536 70.167,164.735 67.516,163.667 66.087 C 163.346 65.658,162.967 65.177,162.824 65.019 C 162.682 64.861,162.276 64.211,161.923 63.574 C 161.569 62.938,161.147 62.244,160.985 62.034 C 160.823 61.823,160.638 61.411,160.575 61.117 C 160.511 60.824,160.290 60.283,160.082 59.917 C 159.874 59.550,159.652 58.953,159.588 58.591 C 159.524 58.229,159.339 57.666,159.175 57.341 C 159.012 57.016,158.825 56.262,158.761 55.667 C 158.696 55.071,158.489 53.683,158.302 52.583 C 157.940 50.464,157.946 46.577,158.312 45.372 C 158.404 45.073,158.565 44.100,158.671 43.210 C 158.778 42.320,158.998 41.328,159.162 41.004 C 159.325 40.681,159.545 40.010,159.651 39.512 C 159.756 39.015,159.981 38.377,160.150 38.096 C 160.319 37.814,160.510 37.358,160.574 37.083 C 160.639 36.808,160.827 36.433,160.993 36.250 C 161.159 36.067,161.350 35.729,161.417 35.500 C 161.484 35.271,161.659 34.947,161.806 34.780 C 161.952 34.614,162.225 34.229,162.411 33.925 C 163.238 32.576,163.708 31.996,165.047 30.667 C 165.832 29.887,166.649 29.122,166.862 28.965 C 167.076 28.808,167.607 28.414,168.043 28.090 C 168.479 27.765,168.899 27.500,168.976 27.500 C 169.052 27.500,169.248 27.353,169.411 27.173 C 169.574 26.993,169.979 26.757,170.312 26.649 C 170.644 26.540,171.089 26.318,171.299 26.154 C 171.510 25.990,171.923 25.806,172.216 25.745 C 172.510 25.684,173.063 25.454,173.446 25.234 C 173.829 25.013,174.369 24.833,174.646 24.833 C 174.923 24.833,175.761 24.640,176.508 24.404 C 178.367 23.817,183.152 23.756,184.697 24.300 C 185.218 24.484,185.968 24.686,186.364 24.749 C 186.760 24.813,187.314 24.998,187.597 25.160 C 187.879 25.323,188.404 25.550,188.764 25.665 C 189.123 25.780,189.567 26.006,189.750 26.168 C 189.933 26.329,190.308 26.584,190.583 26.735 C 190.858 26.886,191.491 27.303,191.988 27.663 C 193.171 28.516,193.167 28.524,193.167 25.844 C 193.167 24.072,193.221 23.496,193.400 23.347 C 193.732 23.071,208.111 23.079,208.443 23.355 C 208.641 23.520,208.669 28.056,208.630 53.733 L 208.583 83.917 208.125 84.953 C 207.873 85.523,207.662 86.123,207.656 86.287 C 207.650 86.450,207.354 87.108,206.998 87.750 C 206.642 88.392,206.186 89.217,205.985 89.583 C 205.784 89.950,205.461 90.430,205.268 90.650 C 204.391 91.647,201.829 94.120,201.317 94.463 C 201.005 94.672,200.487 95.022,200.167 95.239 C 199.846 95.457,199.021 95.910,198.333 96.246 C 197.646 96.582,196.933 96.940,196.750 97.041 C 195.810 97.561,195.549 97.665,195.167 97.671 C 194.938 97.674,194.375 97.862,193.917 98.087 C 193.458 98.312,192.864 98.498,192.597 98.498 C 191.568 98.502,190.000 98.865,190.000 99.100 C 190.000 99.300,205.206 99.333,295.000 99.333 L 400.000 99.333 400.000 56.667 C 400.000 18.852,399.972 14.000,399.750 14.000 C 399.558 14.000,399.500 13.787,399.500 13.083 C 399.500 12.380,399.558 12.167,399.750 12.167 C 399.968 12.167,400.000 11.380,400.000 6.083 L 400.000 0.000 212.083 0.000 L 24.167 0.000 24.167 11.808 C 24.167 23.035,24.152 23.629,23.862 23.891 C 23.441 24.272,20.908 24.284,20.370 23.907 L 20.000 23.648 20.000 11.824 L 20.000 0.000 10.000 0.000 L 0.000 0.000 0.000 3.000 M101.957 4.276 C 102.311 4.762,102.260 75.049,101.905 75.405 C 101.675 75.635,100.771 75.667,94.498 75.667 L 87.352 75.667 87.093 75.296 C 86.720 74.764,86.694 5.087,87.066 4.367 L 87.299 3.917 94.523 3.953 C 101.143 3.986,101.764 4.013,101.957 4.276 M377.776 4.368 C 378.130 5.006,378.095 74.790,377.741 75.296 L 377.481 75.667 369.830 75.667 C 360.948 75.667,361.835 75.901,361.831 73.553 C 361.828 71.711,361.755 71.577,360.946 71.915 C 360.609 72.056,360.333 72.237,360.333 72.317 C 360.333 72.398,360.015 72.625,359.625 72.822 C 359.235 73.020,358.729 73.284,358.500 73.410 C 357.304 74.068,356.227 74.512,355.608 74.603 C 355.228 74.658,354.359 74.845,353.677 75.018 C 352.361 75.353,350.296 75.419,349.000 75.169 C 348.587 75.089,347.425 74.873,346.417 74.689 C 345.408 74.505,344.286 74.199,343.923 74.010 C 343.560 73.821,343.106 73.667,342.914 73.667 C 342.722 73.667,342.311 73.479,342.000 73.250 C 341.689 73.021,341.310 72.833,341.157 72.833 C 341.004 72.833,340.596 72.608,340.250 72.333 C 339.904 72.058,339.566 71.833,339.500 71.833 C 338.832 71.833,334.448 67.336,333.571 65.750 C 333.419 65.475,333.162 65.100,333.000 64.917 C 332.838 64.733,332.651 64.407,332.586 64.191 C 332.520 63.975,332.287 63.534,332.067 63.210 C 331.847 62.885,331.667 62.491,331.667 62.333 C 331.667 62.174,331.519 61.858,331.339 61.629 C 331.159 61.400,330.932 60.857,330.835 60.422 C 330.737 59.988,330.542 59.409,330.401 59.136 C 330.260 58.863,330.001 57.840,329.825 56.862 C 329.649 55.884,329.386 54.521,329.241 53.833 C 328.860 52.034,328.991 46.874,329.456 45.333 C 329.636 44.737,329.836 43.780,329.900 43.207 C 329.964 42.633,330.200 41.770,330.424 41.290 C 330.647 40.810,330.831 40.266,330.832 40.082 C 330.833 39.898,331.021 39.395,331.250 38.965 C 331.479 38.534,331.667 38.072,331.667 37.937 C 331.667 37.802,331.844 37.480,332.061 37.221 C 332.277 36.962,332.511 36.563,332.580 36.333 C 332.649 36.104,332.826 35.780,332.972 35.614 C 333.119 35.447,333.391 35.062,333.578 34.758 C 334.505 33.245,335.020 32.619,336.592 31.083 C 338.330 29.386,338.925 28.887,339.667 28.501 C 339.896 28.381,340.295 28.107,340.554 27.892 C 340.814 27.676,341.155 27.500,341.314 27.500 C 341.472 27.500,341.846 27.320,342.144 27.100 C 342.442 26.880,342.944 26.652,343.259 26.593 C 343.575 26.533,344.226 26.302,344.708 26.077 C 345.189 25.853,345.846 25.669,346.167 25.667 C 346.488 25.665,347.350 25.512,348.083 25.325 C 349.948 24.851,352.966 24.728,354.167 25.076 C 354.671 25.222,355.721 25.459,356.500 25.602 C 357.279 25.745,358.142 25.998,358.417 26.163 C 358.692 26.329,359.157 26.515,359.451 26.577 C 359.744 26.639,360.174 26.839,360.406 27.021 C 360.638 27.204,361.035 27.367,361.289 27.385 L 361.750 27.417 361.833 16.000 C 361.893 7.829,361.971 4.489,362.109 4.250 C 362.297 3.923,362.457 3.917,369.933 3.952 L 377.565 3.987 377.776 4.368 M393.486 4.809 C 393.799 4.822,394.013 4.876,393.960 4.929 C 393.873 5.016,388.135 5.071,387.750 4.989 C 386.949 4.816,390.810 4.696,393.486 4.809 M395.449 5.965 C 394.975 6.064,394.532 5.853,394.829 5.669 C 394.972 5.581,395.201 5.598,395.408 5.713 C 395.722 5.887,395.726 5.907,395.449 5.965 M387.000 5.833 C 386.672 6.045,386.167 6.045,386.167 5.833 C 386.167 5.742,386.410 5.668,386.708 5.669 C 387.119 5.671,387.190 5.711,387.000 5.833 M63.412 6.174 C 63.632 6.394,63.783 44.973,63.668 71.613 C 63.664 72.326,63.573 72.333,54.842 72.333 C 47.324 72.333,46.519 72.307,46.312 72.058 C 46.121 71.828,46.069 67.824,46.000 48.016 L 45.917 24.250 36.515 24.207 C 29.910 24.177,27.048 24.109,26.890 23.978 C 26.604 23.740,26.556 6.684,26.841 6.152 C 27.083 5.700,62.960 5.721,63.412 6.174 M396.496 6.807 C 396.218 6.900,395.803 6.684,395.914 6.505 C 395.978 6.400,396.135 6.415,396.343 6.545 C 396.523 6.657,396.592 6.775,396.496 6.807 M385.667 6.657 C 385.667 6.882,385.363 7.038,385.164 6.915 C 385.071 6.857,385.038 6.740,385.090 6.655 C 385.216 6.453,385.667 6.454,385.667 6.657 M397.209 7.458 C 397.327 7.607,397.297 7.667,397.104 7.667 C 396.917 7.667,396.837 7.525,396.846 7.208 C 396.854 6.947,396.899 6.858,396.952 7.000 C 397.003 7.138,397.119 7.344,397.209 7.458 M384.703 7.697 C 384.448 7.952,384.260 7.764,384.402 7.396 C 384.485 7.179,384.557 7.157,384.705 7.305 C 384.854 7.454,384.853 7.547,384.703 7.697 M398.000 8.427 C 398.000 8.559,397.925 8.667,397.833 8.667 C 397.742 8.667,397.667 8.512,397.667 8.323 C 397.667 8.135,397.742 8.027,397.833 8.083 C 397.925 8.140,398.000 8.294,398.000 8.427 M383.831 8.625 C 383.829 8.785,383.756 9.029,383.667 9.167 C 383.544 9.356,383.504 9.286,383.503 8.875 C 383.501 8.577,383.575 8.333,383.667 8.333 C 383.758 8.333,383.832 8.465,383.831 8.625 M388.417 12.667 C 388.626 12.840,388.625 12.898,388.412 13.112 C 388.222 13.301,388.167 13.827,388.167 15.429 C 388.167 16.698,388.102 17.500,388.000 17.500 C 387.893 17.500,387.833 16.032,387.833 13.430 C 387.833 9.266,388.045 7.251,388.130 10.609 C 388.165 11.979,388.240 12.520,388.417 12.667 M398.831 9.958 C 398.829 10.531,398.784 10.681,398.667 10.500 C 398.454 10.170,398.454 9.167,398.667 9.167 C 398.758 9.167,398.832 9.523,398.831 9.958 M382.874 11.500 C 382.793 12.555,382.756 12.672,382.637 12.250 C 382.476 11.677,382.642 9.905,382.838 10.112 C 382.910 10.188,382.926 10.813,382.874 11.500 M394.331 10.875 C 394.329 11.501,394.282 11.679,394.167 11.500 C 393.895 11.080,393.975 10.000,394.278 10.000 C 394.308 10.000,394.332 10.394,394.331 10.875 M393.406 13.312 C 393.542 13.576,393.608 13.836,393.553 13.891 C 393.372 14.072,393.167 13.820,393.167 13.417 C 393.167 13.081,393.071 13.010,392.542 12.955 L 391.917 12.889 392.537 12.861 C 393.066 12.837,393.195 12.904,393.406 13.312 M382.843 16.000 C 382.696 16.828,382.483 14.950,382.616 14.000 L 382.744 13.083 382.830 14.333 C 382.878 15.021,382.883 15.771,382.843 16.000 M394.333 17.390 C 394.082 17.661,394.010 17.197,394.125 16.064 L 394.242 14.917 394.352 16.083 C 394.412 16.725,394.403 17.313,394.333 17.390 M398.761 16.794 C 398.548 17.008,398.469 16.643,398.599 16.049 L 398.739 15.417 398.797 16.058 C 398.829 16.411,398.813 16.743,398.761 16.794 M383.831 17.458 C 383.832 17.573,383.758 17.667,383.667 17.667 C 383.575 17.667,383.501 17.460,383.503 17.208 C 383.505 16.739,383.825 16.983,383.831 17.458 M398.000 18.000 C 398.000 18.185,397.889 18.333,397.750 18.333 C 397.469 18.333,397.458 18.303,397.601 17.930 C 397.744 17.558,398.000 17.603,398.000 18.000 M384.667 18.590 C 384.667 18.720,384.850 18.873,385.074 18.929 C 385.322 18.991,385.501 19.172,385.532 19.391 C 385.568 19.643,385.720 19.766,386.042 19.803 C 386.489 19.854,386.706 20.169,386.292 20.164 C 385.759 20.159,385.333 19.936,385.333 19.664 C 385.333 19.483,385.137 19.298,384.833 19.192 C 384.450 19.058,384.333 18.916,384.333 18.582 C 384.333 18.334,384.405 18.191,384.500 18.250 C 384.592 18.307,384.667 18.460,384.667 18.590 M396.167 19.917 C 396.167 20.056,396.019 20.167,395.833 20.167 C 395.464 20.167,395.382 19.909,395.708 19.777 C 396.071 19.631,396.167 19.660,396.167 19.917 M388.333 20.833 C 388.514 20.950,388.364 20.996,387.792 20.997 C 387.356 20.999,387.000 20.925,387.000 20.833 C 387.000 20.620,388.004 20.620,388.333 20.833 M394.833 20.833 C 394.833 20.925,394.477 20.995,394.042 20.988 C 393.446 20.979,393.333 20.941,393.583 20.833 C 394.049 20.633,394.833 20.633,394.833 20.833 M134.916 21.752 C 135.833 21.980,136.744 22.167,136.941 22.167 C 137.139 22.167,137.701 22.353,138.192 22.582 C 138.682 22.810,139.242 22.997,139.435 22.998 C 139.629 22.999,140.050 23.178,140.371 23.396 C 140.692 23.614,141.226 23.882,141.558 23.992 C 141.890 24.101,142.209 24.267,142.266 24.359 C 142.323 24.452,142.699 24.669,143.102 24.841 C 143.504 25.014,143.833 25.220,143.833 25.301 C 143.833 25.381,144.014 25.529,144.235 25.629 C 144.584 25.789,145.461 26.413,146.418 27.184 C 147.746 28.255,150.175 31.029,151.083 32.513 C 151.267 32.812,151.581 33.325,151.783 33.653 C 152.135 34.228,153.113 36.176,153.922 37.917 C 154.135 38.375,154.361 39.050,154.425 39.417 C 154.490 39.783,154.686 40.406,154.863 40.801 C 155.039 41.195,155.252 42.095,155.336 42.801 C 155.419 43.506,155.610 44.608,155.759 45.250 C 156.158 46.968,156.291 52.214,155.955 53.018 C 155.599 53.869,156.207 53.841,138.494 53.830 C 122.526 53.820,122.164 53.833,121.938 54.421 C 121.824 54.719,122.411 57.031,122.763 57.667 C 122.890 57.896,123.102 58.308,123.233 58.583 C 123.852 59.877,126.353 61.912,127.640 62.170 C 128.067 62.256,128.717 62.437,129.083 62.572 C 129.846 62.854,132.432 62.912,133.333 62.667 C 133.654 62.580,134.405 62.375,135.002 62.213 C 136.282 61.864,136.737 61.575,138.030 60.292 L 138.996 59.333 146.549 59.333 C 155.371 59.333,154.831 59.230,154.416 60.841 C 154.263 61.433,154.039 62.029,153.918 62.167 C 153.797 62.304,153.615 62.727,153.514 63.106 C 153.413 63.484,153.223 63.884,153.091 63.994 C 152.959 64.104,152.761 64.469,152.651 64.805 C 152.541 65.141,152.294 65.613,152.101 65.854 C 151.767 66.270,151.358 66.911,150.855 67.807 C 150.420 68.580,146.410 72.441,145.332 73.124 C 144.737 73.500,144.056 73.960,143.819 74.144 C 143.582 74.329,143.170 74.533,142.902 74.599 C 142.635 74.664,142.205 74.893,141.946 75.109 C 141.686 75.324,141.274 75.500,141.029 75.501 C 140.784 75.501,140.334 75.653,140.029 75.839 C 139.724 76.025,138.937 76.282,138.279 76.410 C 137.621 76.538,136.763 76.758,136.371 76.899 C 134.848 77.446,126.707 77.390,125.652 76.826 C 125.454 76.719,124.686 76.527,123.947 76.398 C 123.207 76.268,122.448 76.062,122.260 75.939 C 122.071 75.815,121.495 75.592,120.980 75.442 C 120.465 75.292,119.956 75.064,119.848 74.935 C 119.741 74.805,119.450 74.650,119.201 74.589 C 118.953 74.529,118.487 74.313,118.167 74.110 C 117.143 73.463,116.927 73.330,116.431 73.037 C 114.512 71.904,111.198 68.454,110.071 66.417 C 109.919 66.142,109.662 65.767,109.500 65.583 C 109.338 65.400,109.149 65.063,109.080 64.833 C 109.011 64.604,108.777 64.205,108.561 63.946 C 108.344 63.686,108.167 63.307,108.167 63.103 C 108.167 62.899,107.979 62.477,107.750 62.167 C 107.521 61.856,107.333 61.403,107.333 61.159 C 107.333 60.916,107.155 60.380,106.936 59.969 C 106.718 59.558,106.484 58.820,106.416 58.329 C 106.348 57.837,106.148 57.019,105.971 56.509 C 105.056 53.878,105.058 43.565,105.973 41.231 C 106.149 40.783,106.346 40.079,106.412 39.667 C 106.478 39.254,106.671 38.675,106.841 38.380 C 107.011 38.085,107.199 37.583,107.258 37.265 C 107.318 36.946,107.547 36.442,107.767 36.144 C 107.987 35.846,108.167 35.472,108.167 35.314 C 108.167 35.155,108.344 34.814,108.561 34.554 C 108.777 34.295,109.011 33.896,109.079 33.667 C 109.148 33.438,109.369 33.063,109.571 32.833 C 109.934 32.421,110.096 32.195,110.936 30.934 C 111.503 30.082,114.424 27.163,115.261 26.611 C 115.622 26.373,116.217 25.951,116.583 25.674 C 116.950 25.397,117.551 25.030,117.919 24.858 C 118.287 24.686,118.686 24.428,118.806 24.283 C 118.925 24.139,119.262 23.969,119.553 23.906 C 119.845 23.842,120.260 23.652,120.475 23.483 C 120.691 23.314,121.141 23.128,121.475 23.069 C 121.810 23.011,122.341 22.815,122.657 22.635 C 122.972 22.455,123.835 22.201,124.574 22.073 C 125.312 21.944,126.292 21.730,126.750 21.597 C 128.253 21.162,132.900 21.250,134.916 21.752 M392.083 21.667 C 392.303 21.761,391.887 21.814,390.865 21.822 C 389.870 21.829,389.351 21.774,389.417 21.667 C 389.541 21.465,391.615 21.465,392.083 21.667 M261.682 22.672 C 262.653 22.852,263.740 23.003,264.099 23.007 C 264.457 23.011,265.050 23.132,265.417 23.275 C 265.783 23.418,266.533 23.646,267.083 23.783 C 267.633 23.919,268.459 24.211,268.919 24.432 C 269.379 24.653,269.870 24.833,270.012 24.833 C 270.153 24.833,270.523 25.021,270.833 25.250 C 271.144 25.479,271.493 25.667,271.609 25.667 C 271.898 25.667,273.451 27.078,274.999 28.746 C 275.806 29.616,276.833 31.119,276.833 31.430 C 276.833 31.536,276.982 31.811,277.165 32.043 C 277.347 32.274,277.581 32.866,277.685 33.357 C 277.789 33.848,278.015 34.806,278.187 35.485 C 278.578 37.026,278.685 75.081,278.300 75.467 C 278.151 75.616,276.275 75.667,270.889 75.667 C 262.623 75.667,263.333 75.823,263.333 74.006 C 263.333 72.887,263.111 72.630,262.448 72.984 C 262.247 73.091,261.538 73.471,260.872 73.828 C 260.205 74.185,259.230 74.566,258.705 74.675 C 258.180 74.783,257.525 74.992,257.250 75.140 C 256.296 75.654,251.028 75.633,249.489 75.109 C 248.808 74.878,247.893 74.637,247.456 74.575 C 247.020 74.513,246.495 74.331,246.290 74.170 C 246.085 74.010,245.729 73.822,245.500 73.751 C 244.952 73.583,243.090 72.580,242.713 72.250 C 242.550 72.108,241.915 71.580,241.303 71.078 C 240.228 70.197,238.840 68.562,238.462 67.734 C 238.362 67.513,238.223 67.333,238.154 67.333 C 238.084 67.333,237.892 66.979,237.727 66.547 C 237.562 66.114,237.293 65.498,237.130 65.178 C 236.967 64.858,236.833 64.466,236.833 64.307 C 236.833 64.147,236.634 63.395,236.390 62.634 C 235.779 60.726,235.724 54.434,236.304 52.750 C 236.494 52.200,236.724 51.337,236.815 50.833 C 236.907 50.329,237.136 49.620,237.325 49.256 C 237.513 48.893,237.667 48.472,237.667 48.321 C 237.667 48.169,237.815 47.856,237.997 47.625 C 238.178 47.395,238.403 47.006,238.496 46.761 C 238.753 46.084,240.617 43.834,241.542 43.083 C 241.994 42.717,242.556 42.248,242.790 42.042 C 243.024 41.835,243.274 41.667,243.345 41.667 C 243.416 41.667,243.686 41.490,243.946 41.274 C 244.205 41.058,244.692 40.792,245.028 40.682 C 245.365 40.573,245.725 40.380,245.830 40.255 C 245.934 40.129,246.334 39.974,246.718 39.910 C 247.102 39.846,247.701 39.649,248.049 39.473 C 249.670 38.651,256.746 38.608,258.649 39.409 C 259.203 39.643,259.828 39.835,260.037 39.836 C 260.246 39.838,260.785 40.056,261.235 40.321 C 262.362 40.984,262.500 40.886,262.500 39.422 C 262.500 37.768,261.732 36.601,259.833 35.372 C 258.490 34.503,253.077 34.028,249.841 34.496 C 249.101 34.602,248.698 34.595,248.549 34.472 C 248.285 34.252,248.229 22.671,248.491 22.408 C 248.813 22.087,259.707 22.304,261.682 22.672 M244.167 22.496 C 244.380 22.631,244.424 23.521,244.466 28.485 L 244.516 34.315 244.124 34.572 C 243.551 34.948,242.045 35.433,241.047 35.563 C 240.569 35.626,239.782 35.861,239.297 36.087 C 238.813 36.312,238.300 36.497,238.157 36.498 C 238.015 36.499,237.644 36.688,237.333 36.917 C 237.023 37.146,236.642 37.333,236.488 37.333 C 236.334 37.333,236.110 37.451,235.990 37.596 C 235.870 37.740,235.468 38.013,235.096 38.203 C 234.332 38.592,231.747 41.151,231.578 41.685 C 231.517 41.877,231.287 42.300,231.067 42.624 C 230.847 42.948,230.667 43.320,230.667 43.450 C 230.667 43.581,230.486 44.076,230.266 44.552 C 229.607 45.974,229.489 48.789,229.504 62.733 C 229.513 71.595,229.463 75.270,229.333 75.400 C 228.984 75.750,213.299 75.740,213.043 75.390 C 212.716 74.943,212.737 23.621,213.064 23.349 C 213.407 23.065,229.068 23.168,229.356 23.456 C 229.496 23.596,229.551 24.159,229.527 25.206 C 229.456 28.253,229.700 28.606,231.070 27.435 C 231.565 27.013,232.038 26.667,232.122 26.667 C 232.206 26.667,232.569 26.444,232.929 26.171 C 233.289 25.899,233.667 25.674,233.769 25.671 C 233.871 25.669,234.149 25.514,234.386 25.327 C 234.624 25.141,235.065 24.904,235.367 24.801 C 235.669 24.698,236.096 24.475,236.314 24.307 C 236.533 24.138,236.839 24.000,236.994 24.000 C 237.150 24.000,237.641 23.815,238.087 23.590 C 238.532 23.364,239.426 23.100,240.073 23.001 C 240.721 22.903,241.588 22.718,242.000 22.589 C 242.882 22.314,243.815 22.274,244.167 22.496 M297.862 23.276 C 298.124 23.513,298.167 23.825,298.167 25.512 C 298.167 26.590,298.209 27.582,298.260 27.715 C 298.348 27.946,300.455 27.015,301.833 26.136 C 302.063 25.990,302.550 25.778,302.917 25.664 C 303.283 25.551,303.697 25.359,303.836 25.238 C 303.975 25.118,304.450 24.938,304.892 24.839 C 305.334 24.740,305.970 24.519,306.306 24.348 C 308.129 23.422,315.165 23.477,316.961 24.432 C 317.376 24.653,317.841 24.833,317.992 24.833 C 318.144 24.833,318.523 25.021,318.833 25.250 C 319.144 25.479,319.469 25.667,319.556 25.667 C 319.757 25.667,321.752 27.406,322.412 28.158 C 322.690 28.473,323.123 28.945,323.375 29.205 C 323.627 29.465,323.833 29.779,323.833 29.902 C 323.833 30.025,323.942 30.216,324.075 30.326 C 324.207 30.436,324.447 30.877,324.608 31.305 C 324.768 31.733,325.031 32.271,325.192 32.500 C 325.770 33.325,325.833 35.606,325.833 55.605 C 325.833 73.472,325.811 75.082,325.558 75.362 C 325.246 75.706,311.199 75.840,310.667 75.504 C 310.448 75.366,310.406 73.320,310.333 59.298 C 310.258 44.799,310.224 43.210,309.977 42.833 C 309.827 42.604,309.617 42.141,309.510 41.805 C 309.312 41.179,308.407 40.266,307.226 39.500 C 306.401 38.966,302.292 38.857,301.726 39.355 C 301.556 39.504,301.154 39.757,300.833 39.916 C 300.010 40.325,299.346 41.079,298.713 42.324 L 298.167 43.398 298.167 59.162 C 298.167 73.160,298.138 74.967,297.907 75.296 L 297.648 75.667 290.083 75.667 C 282.890 75.667,282.508 75.651,282.301 75.356 C 282.123 75.102,282.099 70.299,282.167 49.147 L 282.250 23.250 289.750 23.164 C 293.875 23.117,297.319 23.061,297.404 23.039 C 297.488 23.018,297.694 23.124,297.862 23.276 M129.000 35.188 C 128.771 35.280,128.208 35.427,127.750 35.513 C 127.292 35.600,126.711 35.821,126.461 36.005 C 126.210 36.189,125.816 36.411,125.586 36.499 C 125.355 36.587,125.167 36.733,125.167 36.824 C 125.167 36.915,124.987 37.085,124.768 37.203 C 124.549 37.321,124.097 37.754,123.764 38.167 C 123.430 38.579,123.009 39.092,122.829 39.306 C 122.648 39.520,122.500 39.810,122.500 39.952 C 122.500 40.093,122.300 40.653,122.057 41.196 C 121.340 42.792,120.771 42.692,130.434 42.675 C 140.051 42.658,139.736 42.726,138.638 40.917 C 138.471 40.642,138.334 40.314,138.334 40.188 C 138.332 39.474,136.132 36.898,135.083 36.383 C 134.808 36.248,134.321 35.994,134.000 35.819 C 133.679 35.644,133.257 35.500,133.063 35.500 C 132.868 35.500,132.390 35.387,132.000 35.250 C 131.202 34.968,129.629 34.936,129.000 35.188 M182.250 39.342 C 180.909 39.609,179.073 40.217,178.686 40.521 C 178.467 40.693,178.190 40.833,178.070 40.833 C 177.710 40.833,175.110 43.521,174.603 44.418 C 173.329 46.668,172.790 50.056,173.435 51.750 C 173.575 52.117,173.762 52.717,173.851 53.083 C 173.939 53.450,174.149 53.939,174.316 54.170 C 174.483 54.401,174.670 54.748,174.732 54.942 C 174.793 55.136,175.056 55.517,175.316 55.789 C 175.576 56.061,175.818 56.355,175.853 56.442 C 175.990 56.779,178.138 58.457,178.573 58.566 C 178.826 58.629,179.232 58.828,179.475 59.007 C 179.764 59.221,180.405 59.392,181.333 59.505 C 182.112 59.599,182.857 59.714,182.987 59.760 C 183.435 59.920,186.901 59.325,187.337 59.014 C 187.567 58.849,187.942 58.655,188.170 58.584 C 188.870 58.365,190.894 56.580,191.757 55.420 C 195.052 50.993,193.324 42.861,188.667 40.881 C 188.346 40.745,187.949 40.514,187.785 40.368 C 187.621 40.222,186.983 39.965,186.368 39.798 C 185.753 39.630,184.987 39.421,184.667 39.334 C 183.992 39.150,183.197 39.152,182.250 39.342 M351.000 39.997 C 348.584 40.206,345.300 42.345,344.215 44.417 C 344.071 44.692,343.813 45.096,343.643 45.314 C 343.473 45.533,343.333 45.873,343.333 46.071 C 343.333 46.268,343.168 46.727,342.966 47.090 C 342.152 48.553,342.481 52.449,343.592 54.500 C 343.716 54.729,343.978 55.208,344.174 55.565 C 344.591 56.324,346.745 58.500,347.079 58.500 C 347.205 58.500,347.520 58.678,347.779 58.895 C 348.038 59.112,348.510 59.347,348.827 59.416 C 349.144 59.485,349.706 59.701,350.077 59.896 C 350.998 60.380,354.427 60.406,355.313 59.935 C 355.623 59.771,356.238 59.528,356.681 59.397 C 357.124 59.266,357.531 59.084,357.587 58.993 C 357.643 58.903,357.979 58.681,358.333 58.500 C 359.738 57.784,361.338 55.792,362.161 53.737 C 362.875 51.954,362.923 47.975,362.248 46.525 C 362.020 46.035,361.833 45.534,361.833 45.413 C 361.833 45.292,361.646 44.969,361.417 44.697 C 361.188 44.425,361.000 44.147,361.000 44.080 C 361.000 43.912,359.024 41.988,358.435 41.582 C 356.315 40.121,354.363 39.705,351.000 39.997 M255.098 49.778 C 251.265 50.428,248.620 56.389,250.685 59.728 C 251.353 60.809,252.500 61.974,253.086 62.167 C 253.390 62.268,253.723 62.450,253.824 62.572 C 254.423 63.294,259.094 63.225,259.764 62.484 C 259.922 62.310,260.156 62.167,260.283 62.167 C 260.660 62.167,262.186 60.637,262.528 59.917 C 262.702 59.550,262.954 59.063,263.087 58.833 C 263.576 57.989,263.421 54.891,262.825 53.617 C 261.456 50.693,258.467 49.208,255.098 49.778 M43.362 54.276 C 43.720 54.600,43.847 77.185,43.494 77.844 C 43.342 78.128,43.133 78.167,41.733 78.167 C 39.218 78.167,39.500 79.683,39.500 66.170 L 39.500 54.519 39.870 54.259 C 40.408 53.883,42.941 53.895,43.362 54.276 " stroke="none" fill="#fbfbfb" fill-rule="evenodd"></path></g></svg>